<?xml version="1.0" encoding="UTF-8"?>
<svg 
  class="svg-microcircuit" 
  width="100%" 
  height="100%" 
  style="position: absolute; inset: 0;" 
  preserveAspectRatio="none" 
  xmlns="http://www.w3.org/2000/svg" 
  xmlns:xlink="http://www.w3.org/1999/xlink" 
  viewBox="0 0 245 925"
>
  <defs>
    <symbol id="circle-indicator" viewBox="0 0 26.43 26.43">
      <circle cx="13.21" cy="13.21" r="13.21" style="stroke-width: 0px;"/>
    </symbol>
    <symbol id="indicator-base" viewBox="0 0 26 26">
      <path d="m13,0C5.82,0,0,5.82,0,13s5.82,13,13,13,13-5.82,13-13S20.18,0,13,0Zm0,20c-3.87,0-7-3.13-7-7s3.13-7,7-7,7,3.13,7,7-3.13,7-7,7Z" style="stroke-width: 0px;"/>
    </symbol>
    <symbol id="square-indicator" viewBox="0 0 32 9">
      <rect x="0" y="0" width="32" height="9" rx="4.5" ry="4.5" style="stroke-width: 0px;"/>
    </symbol>
  </defs>
  <g class="microcircuit">
    <rect width="250" height="940" style="fill: none; stroke-width: 0px;"/>
    <path class="signal-lines-base" d="m40.9,316.11v30.38c0,7.46,2.96,14.61,8.24,19.88l45.76,45.76c5.27,5.27,8.24,12.43,8.24,19.88v117.34c0,7.46-2.96,14.61-8.24,19.88l-23.53,23.53c-5.27,5.27-8.24,12.43-8.24,19.88v27.94m163.7-319.91l-.51,29.32c-.1,5.57-2.4,10.87-6.41,14.74l-50.8,49.05c-4.01,3.87-6.31,9.17-6.41,14.74l-1.36,77.88c-.1,5.77,2.18,11.33,6.3,15.37l23.47,22.99c4.12,4.04,6.4,9.6,6.3,15.37l-1.2,68.53M23.29,795.28v-302.78m37.57,360.35l33.13,33.13c5.52,5.52,13.02,8.63,20.83,8.63h30.39c7.81,0,15.31-3.1,20.83-8.63l32.22-32.22m-66.26-262.76v-217m-68.5,145.09v-61.58c0-6.12-2.43-11.99-6.76-16.31l-27.22-27.22" style="fill: none; stroke-miterlimit: 10; stroke-width: 5px;"/>
    <g class="signal-lines">
      <path class="signal-line" d="m40.9,316.11v30.38c0,7.46,2.96,14.61,8.24,19.88l45.76,45.76c5.27,5.27,8.24,12.43,8.24,19.88v117.34c0,7.46-2.96,14.61-8.24,19.88l-23.53,23.53c-5.27,5.27-8.24,12.43-8.24,19.88v27.94" style="fill: none; stroke: #000; stroke-miterlimit: 10; stroke-width: 5px;"/>
      <path class="signal-line" d="m226.82,320.68l-.51,29.32c-.1,5.57-2.4,10.87-6.41,14.74l-50.8,49.05c-4.01,3.87-6.31,9.17-6.41,14.74l-1.36,77.88c-.1,5.77,2.18,11.33,6.3,15.37l23.47,22.99c4.12,4.04,6.4,9.6,6.3,15.37l-1.2,68.53" style="fill: none; stroke: #000; stroke-miterlimit: 10; stroke-width: 5px;"/>
      <line class="signal-line" x1="23.29" y1="492.5" x2="23.29" y2="795.28" style="fill: none; stroke: #000; stroke-miterlimit: 10; stroke-width: 5px;"/>
      <path class="signal-line" d="m60.86,852.85l33.13,33.13c5.52,5.52,13.02,8.63,20.83,8.63h30.39c7.81,0,15.31-3.1,20.83-8.63l32.22-32.22" style="fill: none; stroke: #000; stroke-miterlimit: 10; stroke-width: 5px;"/>
      <line class="signal-line" x1="132" y1="591" x2="132" y2="374" style="fill: none; stroke: #000; stroke-miterlimit: 10; stroke-width: 5px;"/>
      <path class="signal-line" d="m63.5,519.09v-61.58c0-6.12-2.43-11.99-6.76-16.31l-27.22-27.22" style="fill: none; stroke: #000; stroke-miterlimit: 10; stroke-width: 5px;"/>
    </g>
    <g class="microchip">
      <path d="m189.89,221.66c9.45.11,18.91.1,28.36,0,1.49-.02,2.46.3,3.28,1.18-.45-1.54-.74-3.14-.81-4.79-.03-.75,0-1.49.07-2.22-.72.45-1.56.58-2.66.57-7.78-.08-15.55-.03-23.33-.03-8.45,0-8.34,0-8.37-8.68,0-2.66.45-4.12,3.44-3.57,8.7,1.61,15.35-1.59,20.42-8.62.79-1.1,2-1.89,2.87-2.94,1.57-1.88,3.05-3.03,5.27-3.11-2.47-1.62-4.52-3.83-5.99-6.43-.17,3.1-2.09,4.98-4.3,7.33-4.99,5.29-9.75,10.25-18.13,8.65-2.51-.48-3.74-.54-3.59-3.53.27-5.32.12-10.67.06-16.01-.1-8.97-5.31-14.21-14.19-14.32-4.12-.05-8.23,0-12.35,0-7.59,0-7.51,0-7.19-7.56.07-1.7.72-2.8,1.86-3.9,3.07-2.97,6.14-5.94,9.03-9.08.95-1.04,1.84-1.7,2.88-1.98-1.83-1.5-3.36-3.35-4.53-5.45-.69,2.92-3,4.76-5.2,6.98-2.25,2.27-4.45,4.61-6.81,6.77-1.69,1.55-2.45,3.24-2.48,5.58-.13,8.97-.2,8.86-9.24,8.7-2.42-.04-3.06-.73-3.03-3.09.12-9.6.13-19.21,0-28.82-.02-1.15.22-1.95.71-2.59-1.22.27-2.46.41-3.71.41-1,0-1.96-.1-2.9-.25.56.87.68,1.89.67,3.21-.1,7.47-.04,14.94-.04,22.41,0,8.83,0,8.69-8.79,8.72-2.82.01-4-.73-3.46-3.54,1.68-8.76-1.78-15.28-8.71-20.39-1.33-.98-2.3-2.46-3.6-3.5-1.4-1.12-2.18-2.26-2.34-3.69-1.54,2.03-3.49,3.76-5.69,5.06,2.28.24,3.83,1.7,5.68,3.49,5.6,5.42,11.46,10.4,9.54,19.59-.48,2.31-.9,3.02-3.21,2.95-5.18-.15-10.37-.06-15.55-.04-10.05.04-15.04,5.1-15.08,15.28-.01,3.81,0,7.62,0,11.44,0,7.38-1.17,8.28-8.62,7.03-1.39-.23-2.09-1.13-2.92-1.95-2.93-2.89-5.77-5.88-8.76-8.7-1.19-1.12-2.03-2.12-2.32-3.44-1.25,1.95-2.87,3.67-4.75,5.07,2.74.94,4.57,3.25,6.76,5.41,2.06,2.03,4.2,4,6.12,6.17,1.76,1.98,3.75,2.74,6.41,2.72,8.17-.05,7.97.06,8.17,8.41.08,3.43-1.16,3.91-4.15,3.84-8.69-.19-17.38-.18-26.07,0-1.84.04-3.23-.18-4.41-1.03.31,1.28.52,2.6.58,3.95.05,1.19-.04,2.36-.24,3.5,2.3-1.32,4.9-1.26,7.82-1.16,2.89.11,5.79.02,8.69.02h9.61c8.19,0,8.08,0,8.15,8.43.02,2.79-.47,4.44-3.65,3.81-8.6-1.71-14.98,1.74-20.03,8.47-.91,1.21-2.24,2.09-3.19,3.27-1.33,1.65-2.68,2.6-4.44,2.82,2.16,1.75,3.91,4,5.14,6.55.16-3.33,2.45-5.15,4.7-7.43,1.82-1.84,3.67-3.67,5.5-5.5,2.32-2.31,12-4.14,14.91-2.87,1.6.7.95,2.07.96,3.15.07,5.64-.06,11.29.06,16.92.18,8.11,5.46,13.39,13.53,13.59,4.27.1,8.54.02,12.81.02,7.94,0,7.88,0,7.38,7.81-.1,1.53-.7,2.5-1.72,3.49-2.95,2.87-5.9,5.74-8.71,8.75-1.78,1.91-3.28,3.04-6.11,2.46,3.09,1.91,5.55,4.73,7.12,8.07-.36-4.65,2.72-6.88,5.54-9.76,2.13-2.18,4.23-4.4,6.49-6.45,1.82-1.65,2.63-3.47,2.64-5.98.03-8.65.12-8.54,9.01-8.46,2.62.02,3.29.79,3.25,3.33-.14,9.45-.1,18.91-.02,28.36.01,1.46-.23,2.47-1.12,3.34,1.43-.38,2.91-.58,4.39-.58.99,0,1.94.1,2.88.25-.75-.88-.91-1.92-.89-3.35.11-7.47.04-14.94.04-22.41,0-9.13,0-9.02,9.03-8.93,2.59.02,3.7.74,3.23,3.31-1.65,8.9,1.83,15.58,8.88,20.77.97.71,1.7,1.75,2.61,2.56,1.54,1.36,2.71,2.61,3.08,4.34,1.57-2.01,3.56-3.71,5.78-4.97-2.85-.5-4.51-2.72-6.8-4.58-6.01-4.87-9.85-10.41-8.4-18.67.38-2.16.85-2.78,2.95-2.73,5.03.13,10.06.05,15.09.04,10.98-.01,15.75-4.85,15.76-15.98,0-5.03.06-10.06-.03-15.09-.03-1.85.37-2.61,2.47-2.72,4.58-.23,8.58.13,11.63,4.34,2.03,2.8,4.82,5.08,7.37,7.48.81.76,1.28,1.46,1.41,2.32,1.18-1.75,2.66-3.3,4.35-4.59-.85-.21-1.51-.77-2.27-1.54-3.63-3.7-7.37-7.3-10.96-11.04-1.48-1.55-3.11-2.16-5.25-2.2-9.04-.19-8.9-.25-8.82-9.14.02-2.84,1.13-3.13,3.48-3.11Zm-8.74,36.71c-.02,6.51-2.66,9.21-9.09,9.22-26.38.03-52.76.03-79.13,0-6.13,0-8.83-2.78-8.84-8.99-.03-26.38-.03-52.76,0-79.13,0-6.21,2.71-8.97,8.85-8.98,26.53-.03,53.06-.04,79.59,0,5.84,0,8.59,2.84,8.61,8.76.05,13.42.02,26.84.02,40.25,0,12.96.02,25.92,0,38.88Zm-8.33-74.52c.02-3.79-1.35-5.07-5.1-5.05-23.31.11-46.63.12-69.94,0-3.92-.02-5.44,1.21-5.37,5.25.19,11.58.07,23.16.07,34.74s.12,23.47-.07,35.2c-.06,4.01,1.39,5.31,5.34,5.29,23.31-.13,46.63-.12,69.94,0,3.72.02,5.15-1.2,5.13-5.02-.11-23.46-.11-46.93,0-70.4Zm-15.47,63.55c-16.44-.08-32.88-.09-49.32,0-2.79.02-3.81-.9-3.76-3.73.13-8.27.05-16.55.05-24.82s.09-16.33-.05-24.5c-.05-2.85,1.02-3.72,3.79-3.7,16.44.09,32.88.08,49.32,0,2.64-.01,3.61.89,3.6,3.56-.08,16.55-.08,33.09,0,49.64.01,2.69-1,3.55-3.62,3.54Z" style="stroke-width: 0px;"/>
      <g>
        <use width="26" height="26" transform="translate(120.72 306.94) scale(.92)" xlink:href="#indicator-base"/>
        <use width="26" height="26" transform="translate(120.72 108.25) scale(.92)" xlink:href="#indicator-base"/>
        <use width="26" height="26" transform="translate(218.69 207.14) scale(.92)" xlink:href="#indicator-base"/>
        <use width="26" height="26" transform="translate(25.5 207.14) scale(.92)" xlink:href="#indicator-base"/>
        <use width="26" height="26" transform="translate(34.66 167.77) scale(.92)" xlink:href="#indicator-base"/>
        <use width="26" height="26" transform="translate(30.99 245.59) scale(.92)" xlink:href="#indicator-base"/>
        <use width="26" height="26" transform="translate(80.44 293.21) scale(.92)" xlink:href="#indicator-base"/>
        <use width="26" height="26" transform="translate(159.18 296.87) scale(.92)" xlink:href="#indicator-base"/>
        <use width="26" height="26" transform="translate(206.79 245.59) scale(.92)" xlink:href="#indicator-base"/>
        <use width="26" height="26" transform="translate(209.54 168.68) scale(.92)" xlink:href="#indicator-base"/>
        <use width="26" height="26" transform="translate(159.18 122.9) scale(.92)" xlink:href="#indicator-base"/>
        <use width="26" height="26" transform="translate(82.27 117.41) scale(.92)" xlink:href="#indicator-base"/>
        <use width="26" height="26" transform="translate(120.8 207.41) scale(.92)" xlink:href="#indicator-base"/>
      </g>
      <g class="indicators">
        <use width="26.43" height="26.43" transform="translate(126.25 312.43) scale(.5 .49)" xlink:href="#circle-indicator"/>
        <use width="26.43" height="26.43" transform="translate(85.96 298.7) scale(.5 .49)" xlink:href="#circle-indicator"/>
        <use width="26.43" height="26.43" transform="translate(164.7 302.36) scale(.5 .49)" xlink:href="#circle-indicator"/>
        <use width="26.43" height="26.43" transform="translate(212.31 251.09) scale(.5 .49)" xlink:href="#circle-indicator"/>
        <use width="26.43" height="26.43" transform="translate(224.22 212.63) scale(.5 .49)" xlink:href="#circle-indicator"/>
        <use width="26.43" height="26.43" transform="translate(215.06 174.18) scale(.5 .49)" xlink:href="#circle-indicator"/>
        <use width="26.43" height="26.43" transform="translate(164.7 128.4) scale(.5 .49)" xlink:href="#circle-indicator"/>
        <use width="26.43" height="26.43" transform="translate(126.25 113.75) scale(.5 .49)" xlink:href="#circle-indicator"/>
        <use width="26.43" height="26.43" transform="translate(87.79 122.9) scale(.5 .49)" xlink:href="#circle-indicator"/>
        <use width="26.43" height="26.43" transform="translate(125.79 212.9) scale(.5 .49)" xlink:href="#circle-indicator"/>
        <use width="26.43" height="26.43" transform="translate(40.18 173.26) scale(.5 .49)" xlink:href="#circle-indicator"/>
        <use width="26.43" height="26.43" transform="translate(31.02 212.63) scale(.5 .49)" xlink:href="#circle-indicator"/>
        <use width="26.43" height="26.43" transform="translate(36.52 251.09) scale(.5 .49)" xlink:href="#circle-indicator"/>
      </g>
      <g class="indicators-loading">
        <use width="32" height="9" transform="translate(117.98 195.24) scale(.92)" xlink:href="#square-indicator"/>
        <use width="32" height="9" transform="translate(156.25 204.89) rotate(90) scale(.92)" xlink:href="#square-indicator"/>
        <use width="32" height="9" transform="translate(147.09 242.66) rotate(-180) scale(.92)" xlink:href="#square-indicator"/>
        <use width="32" height="9" transform="translate(108.82 234.01) rotate(-90) scale(.92)" xlink:href="#square-indicator"/>
      </g>
    </g>
    <g class="microbridge">
      <path d="m105.92,747.61c-.04-11.91,4.61-20.62,15.26-24.86,5.17-2.06,6.5-4.92,6.21-9.94-.34-5.78-.39-11.62,0-17.4.41-5.94-1-9.65-6.8-13.06-9.79-5.76-10.74-18.38-3.28-26.61,6.94-7.66,19.4-7.74,26.42-.17,7.27,7.84,7.04,20.56-2.19,25.92-7.54,4.37-8.12,9.76-7.67,16.78.26,4.08.37,8.22-.03,12.28-.63,6.45,1.03,10.17,7.82,13.05,9.98,4.23,14.65,13.3,13.32,24.21-.66,5.37.87,8.16,5.42,10.44,4.25,2.13,8.3,4.74,12.22,7.45,5.99,4.13,10.99,6.87,18.85,1.9,8.32-5.26,19.86.91,23.02,10.3,3.52,10.46-2.62,21.15-13.5,23.51-9.7,2.11-19.34-4.59-21.25-14.43-.72-3.72,2.17-8.31-2.73-11.13-8.55-4.93-16.92-10.19-25.57-14.93-2.01-1.1-3.29,1.82-4.86,2.96-11.2,8.16-21.09,8.62-31.74-.07-4.26-3.48-6.83-2.77-10.53-.27-4.24,2.86-8.54,5.7-13.09,7.98-6.49,3.26-10.15,7.08-10.14,15.42.02,9.82-11.09,16.84-20.62,14.83-10.79-2.27-17.09-13.03-13.76-23.48,2.99-9.36,14.74-15.95,22.85-10.62,8.51,5.6,13.61,1.59,19.81-2.39,3.44-2.21,6.86-4.5,10.49-6.37,4.98-2.57,8.79-5.49,6.04-11.33Zm24.28,15.95c9.79.24,18.32-7.81,18.72-17.66.39-9.76-7.57-18.43-17.4-18.96-10.17-.55-19.12,7.9-19.21,18.15-.09,9.81,8.07,18.23,17.89,18.47Zm12.22-95.45c-.89-6.64-4.13-11.35-11.48-11.52-7.28-.17-11.69,4.09-11.86,11.03-.18,6.91,4.05,11.56,11.2,11.81,7.24.25,10.85-4.38,12.14-11.32Zm-79.9,127.27c6.8.04,11.83-2.94,12.58-10.28.74-7.27-3.4-11.97-10.42-12.67-6.53-.65-11.22,2.9-12.16,9.73-1,7.29,2.53,11.68,10,13.23Zm146.43-11.85c-.54-7.08-4.73-11.39-11.8-11.15-7.02.24-11.34,4.75-11.07,12.1.26,6.89,4.64,10.77,11.25,10.81,7.15.04,11.32-4.04,11.62-11.76Z" style="stroke-width: 0px;"/>
      <path d="m130.89,840.56c-13.3.19-22.86-14.19-16.09-25.78,3.44-5.88,2.58-9.51-.53-14.4-4.37-6.88-8.28-14.05-12.3-21.15-1.11-1.96-3.23-4.32-.4-6.25,3.63-2.47,4.73,1.25,5.97,3.3,4.56,7.57,8.77,15.34,13.29,22.93,5.02,8.42,14.65,8.3,19.81-.22,3.87-6.39,7.35-13.04,11.45-19.28,1.81-2.76,2.85-9.09,7.14-6.58,5.33,3.12-.59,7-2.1,10.13-2.94,6.1-6.53,11.92-10.2,17.64-2.9,4.52-4.01,7.84-.64,13.49,6.96,11.66-2.05,25.96-15.4,26.14Zm-.37-6.81c7.38-.26,11.57-4.54,11.43-11.42-.13-6.85-4.56-11.36-11.78-11.14-6.67.2-10.86,4.59-10.95,10.98-.1,6.87,3.91,11.23,11.3,11.58Z" style="stroke-width: 0px;"/>
      <path d="m160.98,703.79c3.75,0,7.51-.19,11.24.05,4.4.29,7.21-.68,9.48-5.26,4.29-8.65,11.82-11.94,21.33-8.96,8.74,2.73,13.41,10.74,12.01,19.94-1.33,8.7-8.02,14.89-17.88,14.87-4.92-.01-7.35,1.46-9.39,5.61-2.84,5.79-6.03,11.44-9.52,16.86-2.34,3.64-3.85,11.87-8.27,9.22-5.94-3.56,1.58-8.46,3.32-12.58,2.63-6.23,6.55-11.9,9.69-17.93,3.57-6.86-1.26-15.19-9.05-15.41-8.85-.24-17.71-.02-26.56-.08-2.63-.02-6.44.59-6.6-2.96-.22-4.89,4.27-3.12,6.92-3.3,4.41-.29,8.85-.08,13.28-.08Zm36.91-8.46c-7.06.39-11.61,3.86-11.66,11.28-.04,6.84,4.26,11.1,10.75,11.32,7,.24,11.55-3.8,11.67-11.31.1-7.03-3.92-10.49-10.76-11.3Z" style="stroke-width: 0px;"/>
      <path d="m100.6,710.15c-4.43,0-8.87-.16-13.29.04-7.87.35-12.68,8.56-8.93,15.37,4.27,7.75,8.9,15.3,13.22,23.01,1.22,2.18,4.04,4.97.72,7.06-3.24,2.04-4.71-1.38-6.04-3.63-4.16-7.03-8.34-14.05-12.24-21.22-2.24-4.11-4.41-6.53-10.02-6.38-9.77.25-16.63-6.13-17.82-14.88-1.26-9.26,2.42-16.01,11.07-19.62,8.75-3.65,17.25-.68,22.26,8.79,2.42,4.57,5.25,5.24,9.58,5.15,8.86-.18,17.72-.08,26.58,0,2.3.02,5.3-.18,4.94,3.37-.25,2.43-2.55,2.89-4.7,2.9-5.11.02-10.22,0-15.34,0,0,.01,0,.02,0,.04Zm-48.11-2.73c.51,6.31,4.48,10.46,11,10.52,7.04.06,11.62-4.26,11.48-11.58-.14-7.38-4.76-11.21-12.01-10.86-6.85.33-10.35,4.46-10.48,11.92Z" style="stroke-width: 0px;"/>
      <g class="indicators">
        <use width="26.43" height="26.43" transform="translate(118.89 810.84) scale(.88)" xlink:href="#circle-indicator"/>
        <use width="26.43" height="26.43" transform="translate(52.01 694.68) scale(.88)" xlink:href="#circle-indicator"/>
        <use width="26.43" height="26.43" transform="translate(185.77 694.68) scale(.88)" xlink:href="#circle-indicator"/>
        <use width="26.43" height="26.43" transform="translate(52.01 772.12) scale(.88)" xlink:href="#circle-indicator"/>
        <use width="26.43" height="26.43" transform="translate(118.89 655.96) scale(.88)" xlink:href="#circle-indicator"/>
        <use width="26.43" height="26.43" transform="translate(185.77 772.12) scale(.88)" xlink:href="#circle-indicator"/>
        <use width="26.43" height="26.43" transform="translate(112.04 726.55) scale(1.4)" xlink:href="#circle-indicator"/>
      </g>
    </g>
    <g>
      <use width="26" height="26" transform="translate(211.5 298)" xlink:href="#indicator-base"/>
      <use width="26" height="26" transform="translate(119.5 352)" xlink:href="#indicator-base"/>
      <use width="26" height="26" transform="translate(28.5 295)" xlink:href="#indicator-base"/>
      <use width="26" height="26" transform="translate(185.5 626)" xlink:href="#indicator-base"/>
      <use width="26" height="26" transform="translate(119.5 588)" xlink:href="#indicator-base"/>
      <use width="26" height="26" transform="translate(49.5 639)" xlink:href="#indicator-base"/>
      <use width="26" height="26" transform="translate(10.5 469) scale(.92 1)" xlink:href="#indicator-base"/>
      <use width="26" height="26" transform="translate(11.5 793) scale(.92 1)" xlink:href="#indicator-base"/>
      <use width="26" height="26" transform="translate(10.5 393) scale(.92 1)" xlink:href="#indicator-base"/>
      <use width="26" height="26" transform="translate(50.5 517)" xlink:href="#indicator-base"/>
      <use width="26" height="26" transform="translate(192.5 833)" xlink:href="#indicator-base"/>
      <use width="26" height="26" transform="translate(40.5 833)" xlink:href="#indicator-base"/>
    </g>
    <g class="indicators microcircuit-indicators">
      <use width="26.43" height="26.43" transform="translate(198.33 838.85) scale(.55 .53)" xlink:href="#circle-indicator"/>
      <use width="26.43" height="26.43" transform="translate(46.33 838.85) scale(.55 .53)" xlink:href="#circle-indicator"/>
      <use width="26.43" height="26.43" transform="translate(16.33 798.85) scale(.55 .53)" xlink:href="#circle-indicator"/>
      <use width="26.43" height="26.43" transform="translate(191.33 631.85) scale(.55 .53)" xlink:href="#circle-indicator"/>
      <use width="26.43" height="26.43" transform="translate(125.33 593.85) scale(.55 .53)" xlink:href="#circle-indicator"/>
      <use width="26.43" height="26.43" transform="translate(55.33 644.85) scale(.55 .53)" xlink:href="#circle-indicator"/>
      <use width="26.43" height="26.43" transform="translate(56.33 522.85) scale(.55 .53)" xlink:href="#circle-indicator"/>
      <use width="26.43" height="26.43" transform="translate(15.33 474.85) scale(.55 .53)" xlink:href="#circle-indicator"/>
      <use width="26.43" height="26.43" transform="translate(15.33 398.85) scale(.55 .53)" xlink:href="#circle-indicator"/>
      <use width="26.43" height="26.43" transform="translate(125.33 357.85) scale(.55 .53)" xlink:href="#circle-indicator"/>
      <use width="26.43" height="26.43" transform="translate(217.33 303.85) scale(.55 .53)" xlink:href="#circle-indicator"/>
      <use width="26.43" height="26.43" transform="translate(34.33 300.85) scale(.55 .53)" xlink:href="#circle-indicator"/>
    </g>
  </g>
</svg>